# xmcd
#
# Track frame offsets:
#	150
#	17737
#	36412
#	49687
#	70275
#	89850
#	105075
#	135562
#	151537
#	166012
#	182437
#
# Disc length: 2744 seconds
# Revision: 1
# Processed by: cddbd v1.5.2PL0 Copyright (c) Steve Scherf et al.
# Submitted via: dBpowerAMP V12.0
#
DISCID=7f0ab60b
DTITLE=Tortilla - Tortilla
DYEAR=2006
DGENRE=Blues
TTITLE0=Ruszam do USA
TTITLE1=Róbmy remont
TTITLE2=Miasto płonie
TTITLE3=Złomowisko
TTITLE4=Help Me People nie mam NIP-u
TTITLE5=Nigdy nie wiesz kiedy
TTITLE6=Metafizyczny blues
TTITLE7=Tango nad przepaścią
TTITLE8=Takie czasy
TTITLE9=Czy warto?
TTITLE10=Zatrzymany w miejscu świat
EXTD=
EXTT0=
EXTT1=
EXTT2=
EXTT3=
EXTT4=
EXTT5=
EXTT6=
EXTT7=
EXTT8=
EXTT9=
EXTT10=
PLAYORDER=
